<?xml version="1.0" encoding="UTF-8"?><svg xmlns="http://www.w3.org/2000/svg" xmlns:xlink="http://www.w3.org/1999/xlink" width="35px" height="px" viewBox="0 0 29 25" version="1.1"><path style="fill-rule:evenodd;fill:rgb(255 167 36);fill-opacity:1;stroke-width:37;stroke-linecap:butt;stroke-linejoin:miter;stroke:rgb(0%,0%,0%);stroke-opacity:1;stroke-miterlimit:10;" d="M 1076.08028 1959.632812 C 1037.314655 1769.175938 968.806439 1611.109688 885.928206 1464.05625 C 824.772091 1355.22375 753.590383 1254.812813 687.755657 1149.219375 C 665.699353 1113.913594 646.650727 1076.664375 625.596983 1040.062969 C 583.489494 967.184062 549.068292 882.320625 551.407597 772.1925 C 553.412716 664.655625 584.492053 578.496562 629.273033 508.208906 C 703.128233 392.250469 826.443023 297.022031 992.199488 272.08125 C 1127.879176 251.675156 1254.870016 286.333125 1344.766164 338.805938 C 1418.287177 381.885469 1475.433055 439.540781 1518.87729 507.237188 C 1563.992457 577.84875 1595.071794 661.416563 1597.745286 770.249063 C 1599.082031 826.284844 1590.058998 877.785938 1577.025727 920.865469 C 1563.992457 964.268906 1542.938712 1000.546406 1524.224273 1039.415156 C 1488.132139 1114.885313 1442.348599 1184.20125 1396.565059 1253.517188 C 1260.216999 1460.169375 1131.889413 1671.032344 1076.08028 1959.632812 Z M 1076.08028 1959.632812 " transform="matrix(0.0116888,0,0,0.0120598,0,0)"/><path style="stroke:none;fill-rule:evenodd;fill:rgb(0%,0%,0%);fill-opacity:1;" d="M 14.773438 8.925781 C 14.773438 7.703125 13.8125 6.714844 12.628906 6.714844 C 11.445312 6.714844 10.488281 7.703125 10.488281 8.925781 C 10.488281 10.144531 11.445312 11.136719 12.628906 11.136719 C 13.8125 11.136719 14.773438 10.144531 14.773438 8.925781 Z M 14.773438 8.925781 "/></svg>
