<?xml version="1.0" encoding="UTF-8"?>
<svg id="Layer_1" data-name="Layer 1" xmlns="http://www.w3.org/2000/svg" viewBox="0 0 296.78 113.88">
  <defs>
    <style>
      .cls-1 {
        fill: #fff;
      }
    </style>
  </defs>
  <path class="cls-1" d="M72.48,108.23c7.93.57,23.88,1.79,21.27-1.32-2.82-3.36-5.41-6.7-8-11.04-.67-1.12-1.33-1.35-3.63-1.87-5.01-1.13-17-4.66-20.28-6.74-4.61-2.92-11-8.43-8.94-14.61,3.71-11.12,29.13-21.02,40.24-24.77,57.09-19.08,118.89-25.53,179.1-28.26,2.38-.28,3.93-.8,3.85-1.34v-.05c-.67-1.46-6.87-1.61-9.22-1.77-32.97-1.13-66.08,1.32-98.83,5.33-44.22,5.69-89.94,11.26-129.66,32.89-20.44,11.17-32.08,30.82-17.25,40.6,13.59,8.97,37.5,11.94,51.35,12.93Z"/>
  <g>
    <path class="cls-1" d="M134.29,96.85c-4.41,5.68-10.72,9.69-19.68,9.69-12.85,0-20.85-7.8-20.85-20.7,0-15.09,9.69-32.43,27.54-32.43,10.06,0,17.18,4.59,19.9,13.48l-9.77,3.13c-1.4-5.03-4.92-7.94-10.35-7.94-11.16,0-16.74,14.07-16.74,23.47,0,7.58,3.67,12.32,10.43,12.32,4.7,0,8.44-2.19,11.53-6.56l8,5.54Z"/>
    <path class="cls-1" d="M173.16,105.59l-1.25-11h-19.09l-6.02,11h-11.46l29.52-51.23h11.6l7.34,51.23h-10.65ZM168.61,65.15l-11.53,21.43h13.95l-2.42-21.43Z"/>
    <path class="cls-1" d="M226.41,67.84c-3.23-3.42-7.56-5.83-13-5.83s-8.74,2.26-8.74,5.98c0,3.06,2.72,4.88,8.15,6.7,10.65,3.5,15.57,8.45,15.57,15.6,0,9.11-7.12,16.25-20.63,16.25-8.15,0-15.42-3.13-19.83-9.33l7.49-6.12c2.94,4.37,7.56,6.85,12.7,6.85,6.24,0,9.69-2.7,9.69-6.92,0-3.13-1.91-5.17-10.13-7.72-9.33-2.92-13.58-8.16-13.58-14.36,0-9.84,8.15-15.52,19.83-15.52,8.59,0,15.79,3.57,19.61,7.87l-7.12,6.56Z"/>
    <path class="cls-1" d="M233.23,105.59l10.94-51.23h35.17l-1.76,8.45h-24.67l-2.5,11.88h18.36l-1.76,8.31h-18.43l-3.01,14.14h25.92l-1.84,8.45h-36.42Z"/>
  </g>
</svg>